<?xml version="1.0" encoding="UTF-8"?>
<svg xmlns="http://www.w3.org/2000/svg" xmlns:xlink="http://www.w3.org/1999/xlink" width="40px" height="42px" viewBox="0 0 40 41" version="1.1">
<defs>
<clipPath id="clip1">
  <path d="M 3 0.464844 L 29.976562 0.464844 L 29.976562 30.734375 L 3 30.734375 Z M 3 0.464844 "/>
</clipPath>
<clipPath id="clip2">
  <path d="M 3 0.464844 L 25 0.464844 L 25 30.734375 L 3 30.734375 Z M 3 0.464844 "/>
</clipPath>
<clipPath id="clip3">
  <path d="M 0.5 8.386719 L 10 8.386719 L 10 14.441406 L 0.5 14.441406 Z M 0.5 8.386719 "/>
</clipPath>
<clipPath id="clip4">
  <path d="M 0.5 17 L 10 17 L 10 22.828125 L 0.5 22.828125 Z M 0.5 17 "/>
</clipPath>
</defs>
<g id="surface1">
<path style=" stroke:none;fill-rule:nonzero;fill:rgb(100%,100%,100%);fill-opacity:1;" d="M 4.910156 29.910156 C 4.4375 29.910156 4.054688 29.539062 4.054688 29.078125 L 4.054688 2.128906 C 4.054688 1.671875 4.4375 1.300781 4.910156 1.300781 L 28.242188 1.300781 C 28.714844 1.300781 29.101562 1.671875 29.101562 2.128906 L 29.101562 29.078125 C 29.101562 29.539062 28.714844 29.910156 28.242188 29.910156 Z M 4.910156 29.910156 "/>
<g clip-path="url(#clip1)" clip-rule="nonzero">
<path style=" stroke:none;fill-rule:nonzero;fill:rgb(0%,0%,0%);fill-opacity:1;" d="M 28.242188 2.128906 L 28.242188 29.078125 L 4.910156 29.078125 L 4.910156 2.128906 L 28.242188 2.128906 M 28.242188 0.46875 L 4.910156 0.46875 C 3.964844 0.46875 3.199219 1.210938 3.199219 2.128906 L 3.199219 29.078125 C 3.199219 29.996094 3.964844 30.738281 4.910156 30.738281 L 28.242188 30.738281 C 29.1875 30.738281 29.957031 29.996094 29.957031 29.078125 L 29.957031 2.128906 C 29.957031 1.210938 29.1875 0.46875 28.242188 0.46875 Z M 28.242188 0.46875 "/>
</g>
<path style=" stroke:none;fill-rule:nonzero;fill:rgb(100%,100%,100%);fill-opacity:1;" d="M 4.910156 29.910156 C 4.4375 29.910156 4.054688 29.539062 4.054688 29.078125 L 4.054688 2.128906 C 4.054688 1.671875 4.4375 1.300781 4.910156 1.300781 L 23.261719 1.300781 C 23.734375 1.300781 24.117188 1.671875 24.117188 2.128906 L 24.117188 29.078125 C 24.117188 29.539062 23.734375 29.910156 23.261719 29.910156 Z M 4.910156 29.910156 "/>
<g clip-path="url(#clip2)" clip-rule="nonzero">
<path style=" stroke:none;fill-rule:nonzero;fill:rgb(0%,0%,0%);fill-opacity:1;" d="M 23.261719 2.128906 L 23.261719 29.078125 L 4.910156 29.078125 L 4.910156 2.128906 L 23.261719 2.128906 M 23.261719 0.46875 L 4.910156 0.46875 C 3.964844 0.46875 3.199219 1.210938 3.199219 2.128906 L 3.199219 29.078125 C 3.199219 29.996094 3.964844 30.738281 4.910156 30.738281 L 23.261719 30.738281 C 24.207031 30.738281 24.972656 29.996094 24.972656 29.078125 L 24.972656 2.128906 C 24.972656 1.210938 24.207031 0.46875 23.261719 0.46875 Z M 23.261719 0.46875 "/>
</g>
<path style=" stroke:none;fill-rule:nonzero;fill:rgb(100%,100%,100%);fill-opacity:1;" d="M 3.398438 13.207031 C 2.289062 13.207031 1.386719 12.332031 1.386719 11.257812 C 1.386719 10.183594 2.289062 9.3125 3.398438 9.3125 L 6.753906 9.3125 C 7.859375 9.3125 8.761719 10.183594 8.761719 11.257812 C 8.761719 12.332031 7.859375 13.207031 6.753906 13.207031 Z M 3.398438 13.207031 "/>
<g clip-path="url(#clip3)" clip-rule="nonzero">
<path style=" stroke:none;fill-rule:nonzero;fill:rgb(0%,0%,0%);fill-opacity:1;" d="M 6.753906 10.140625 C 7.386719 10.140625 7.90625 10.644531 7.90625 11.257812 C 7.90625 11.878906 7.386719 12.375 6.753906 12.375 L 3.398438 12.375 C 2.761719 12.375 2.242188 11.878906 2.242188 11.257812 C 2.242188 10.644531 2.761719 10.140625 3.398438 10.140625 L 6.753906 10.140625 M 6.753906 8.480469 L 3.398438 8.480469 C 1.816406 8.480469 0.53125 9.726562 0.53125 11.257812 C 0.53125 12.789062 1.816406 14.039062 3.398438 14.039062 L 6.753906 14.039062 C 8.332031 14.039062 9.617188 12.789062 9.617188 11.257812 C 9.617188 9.726562 8.332031 8.480469 6.753906 8.480469 Z M 6.753906 8.480469 "/>
</g>
<path style=" stroke:none;fill-rule:nonzero;fill:rgb(100%,100%,100%);fill-opacity:1;" d="M 3.398438 21.898438 C 2.289062 21.898438 1.386719 21.023438 1.386719 19.949219 C 1.386719 18.875 2.289062 18.003906 3.398438 18.003906 L 6.753906 18.003906 C 7.859375 18.003906 8.761719 18.875 8.761719 19.949219 C 8.761719 21.023438 7.859375 21.898438 6.753906 21.898438 Z M 3.398438 21.898438 "/>
<g clip-path="url(#clip4)" clip-rule="nonzero">
<path style=" stroke:none;fill-rule:nonzero;fill:rgb(0%,0%,0%);fill-opacity:1;" d="M 6.753906 18.832031 C 7.386719 18.832031 7.90625 19.332031 7.90625 19.949219 C 7.90625 20.566406 7.386719 21.066406 6.753906 21.066406 L 3.398438 21.066406 C 2.761719 21.066406 2.242188 20.566406 2.242188 19.949219 C 2.242188 19.332031 2.761719 18.832031 3.398438 18.832031 L 6.753906 18.832031 M 6.753906 17.167969 L 3.398438 17.167969 C 1.816406 17.167969 0.53125 18.417969 0.53125 19.949219 C 0.53125 21.484375 1.816406 22.726562 3.398438 22.726562 L 6.753906 22.726562 C 8.332031 22.726562 9.617188 21.484375 9.617188 19.949219 C 9.617188 18.417969 8.332031 17.167969 6.753906 17.167969 Z M 6.753906 17.167969 "/>
</g>
<path style=" stroke:none;fill-rule:nonzero;fill:rgb(0%,0%,0%);fill-opacity:1;" d="M 21.023438 24.367188 L 16.195312 24.367188 C 15.722656 24.367188 15.339844 23.996094 15.339844 23.535156 C 15.339844 23.078125 15.722656 22.707031 16.195312 22.707031 L 21.023438 22.707031 C 21.496094 22.707031 21.878906 23.078125 21.878906 23.535156 C 21.878906 23.996094 21.496094 24.367188 21.023438 24.367188 Z M 21.023438 24.367188 "/>
<path style=" stroke:none;fill-rule:nonzero;fill:rgb(0%,0%,0%);fill-opacity:1;" d="M 21.023438 27.429688 L 16.195312 27.429688 C 15.722656 27.429688 15.339844 27.058594 15.339844 26.601562 C 15.339844 26.140625 15.722656 25.769531 16.195312 25.769531 L 21.023438 25.769531 C 21.496094 25.769531 21.878906 26.140625 21.878906 26.601562 C 21.878906 27.058594 21.496094 27.429688 21.023438 27.429688 Z M 21.023438 27.429688 "/>
<path style=" stroke:none;fill-rule:nonzero;fill:rgb(0%,0%,0%);fill-opacity:1;" d="M 26.550781 30.054688 C 26.078125 30.054688 25.695312 29.683594 25.695312 29.226562 L 25.695312 12.871094 C 25.695312 12.410156 26.078125 12.039062 26.550781 12.039062 C 27.023438 12.039062 27.40625 12.410156 27.40625 12.871094 L 27.40625 29.226562 C 27.40625 29.683594 27.023438 30.054688 26.550781 30.054688 Z M 26.550781 30.054688 "/>
<path style=" stroke:none;fill-rule:nonzero;fill:rgb(0%,0%,0%);fill-opacity:1;" d="M 26.550781 7.796875 C 26.078125 7.796875 25.695312 7.425781 25.695312 6.964844 L 25.695312 1.964844 C 25.695312 1.507812 26.078125 1.132812 26.550781 1.132812 C 27.023438 1.132812 27.40625 1.507812 27.40625 1.964844 L 27.40625 6.964844 C 27.40625 7.425781 27.023438 7.796875 26.550781 7.796875 Z M 26.550781 7.796875 "/>
</g>
</svg>
